{"title":"Death.Race.3.2012.BRRip.x264.720p.Hun.Eng","uid":9297510,"size":2556720627,"categoryP":"video","categoryS":"hd___movies","magnet":"?xt=urn:btih:738deeabe3aea636883a9d24a83f695c9a95f32c&amp;dn=Death.Race.3.2012.BRRip.x264.720p.Hun.Eng&amp;tr=udp%3A%2F%2Ftracker.openbittorrent.com%3A80&amp;tr=udp%3A%2F%2Fopen.demonii.com%3A1337&amp;tr=udp%3A%2F%2Ftracker.coppersurfer.tk%3A6969&amp;tr=udp%3A%2F%2Fexodus.desync.com%3A6969","seeders":1,"leechers":0,"uploader":"rinoceros","files":-1,"time":1386180713,"description":"Death.Race.3.2012.BRRip.x264.720p.Hun.Eng\n\nGeneral\nUnique ID                                : 190238811210480080341086537382320229803 (0x8F1EA98D1D5CB37B93A6F236E7314DAB)\nComplete name                            : F:Death.Race.3.2012.BRRip.x264.720p.Hun.EngDeath Race 3 (2012) 720p.mkv\nFormat                                   : Matroska\nFormat version                           : Version 4 / Version 2\nFile size                                : 2.38 GiB\nDuration                                 : 1h 45mn\nOverall bit rate                         : 3 240 Kbps\nEncoded date                             : UTC 2013-12-04 15:04:17\nWriting application                      : mkvmerge v6.6.0 ('The Edge Of The In Between') built on Dec  1 2013 17:55:00\nWriting library                          : libebml v1.3.0 + libmatroska v1.4.1\n\nVideo\nID                                       : 1\nFormat                                   : AVC\nFormat/Info                              : Advanced Video Codec\nFormat profile                           : &lt;a class=&quot;__cf_email__&quot; href=&quot;/cdn-cgi/l/email-protection&quot; data-cfemail=&quot;7f371618173f334b514e&quot;&gt;[email&amp;#160;protected]&lt;/a&gt;&lt;script cf-hash='f9e31' type=&quot;text/javascript&quot;&gt;\n/* &lt;![CDATA[ */!function(){try{var t=&quot;currentScript&quot;in document?document.currentScript:function(){for(var t=document.getElementsByTagName(&quot;script&quot;),e=t.length;e--;)if(t[e].getAttribute(&quot;cf-hash&quot;))return t[e]}();if(t&amp;&amp;t.previousSibling){var e,r,n,i,c=t.previousSibling,a=c.getAttribute(&quot;data-cfemail&quot;);if(a){for(e=&quot;&quot;,r=parseInt(a.substr(0,2),16),n=2;a.length-n;n+=2)i=parseInt(a.substr(n,2),16)^r,e+=String.fromCharCode(i);e=document.createTextNode(e),c.parentNode.replaceChild(e,c)}}}catch(u){}}();/* ]]&gt; */&lt;/script&gt;\nFormat settings, CABAC                   : Yes\nFormat settings, ReFrames                : 4 frames\nCodec ID                                 : V_MPEG4/ISO/AVC\nDuration                                 : 1h 45mn\nBit rate                                 : 2 036 Kbps\nWidth                                    : 1 280 pixels\nHeight                                   : 720 pixels\nDisplay aspect ratio                     : 16:9\nFrame rate mode                          : Constant\nFrame rate                               : 23.976 fps\nColor space                              : YUV\nChroma subsampling                       : 4:2:0\nBit depth                                : 8 bits\nScan type                                : Progressive\nBits/(Pixel*Frame)                       : 0.092\nStream size                              : 1.45 GiB (61%)\nTitle                                    : Death Race 3 (2013) 720p\nWriting library                          : x264 core 129 r2245 bc13772\nEncoding settings                        : cabac=1 / ref=3 / deblock=1:0:0 / analyse=0x3:0x133 / me=umh / subme=7 / psy=1 / psy_rd=1.00:0.00 / mixed_ref=1 / me_range=16 / chroma_me=1 / trellis=1 / 8x8dct=1 / cqm=0 / deadzone=21,11 / fast_pskip=1 / chroma_qp_offset=-2 / threads=6 / lookahead_threads=1 / sliced_threads=0 / nr=0 / decimate=1 / interlaced=0 / bluray_compat=0 / constrained_intra=0 / bframes=3 / b_pyramid=2 / b_adapt=1 / b_bias=0 / direct=1 / weightb=1 / open_gop=0 / weightp=2 / keyint=240 / keyint_min=23 / scenecut=40 / intra_refresh=0 / rc_lookahead=40 / rc=2pass / mbtree=1 / bitrate=2036 / ratetol=1.0 / qcomp=0.60 / qpmin=0 / qpmax=69 / qpstep=4 / cplxblur=20.0 / qblur=0.5 / ip_ratio=1.40 / aq=1:1.00\nDefault                                  : Yes\nForced                                   : No\n\nAudio #1\nID                                       : 2\nFormat                                   : AC-3\nFormat/Info                              : Audio Coding 3\nMode extension                           : CM (complete main)\nFormat settings, Endianness              : Big\nCodec ID                                 : A_AC3\nDuration                                 : 1h 45mn\nBit rate mode                            : Constant\nBit rate                                 : 448 Kbps\nChannel(s)                               : 6 channels\nChannel positions                        : Front: L C R, Side: L R, LFE\nSampling rate                            : 48.0 KHz\nBit depth                                : 16 bits\nCompression mode                         : Lossy\nStream size                              : 337 MiB (14%)\nTitle                                    : 5.1\nLanguage                                 : Hungarian\nDefault                                  : Yes\nForced                                   : No\n\nAudio #2\nID                                       : 3\nFormat                                   : DTS\nFormat/Info                              : Digital Theater Systems\nMode                                     : 16\nFormat settings, Endianness              : Big\nCodec ID                                 : A_DTS\nDuration                                 : 1h 45mn\nBit rate mode                            : Constant\nBit rate                                 : 755 Kbps\nChannel(s)                               : 6 channels\nChannel positions                        : Front: L C R, Side: L R, LFE\nSampling rate                            : 48.0 KHz\nBit depth                                : 24 bits\nCompression mode                         : Lossy\nStream size                              : 568 MiB (23%)\nTitle                                    : DTS\nLanguage                                 : English\nDefault                                  : No\nForced                                   : No\n\nText\nID                                       : 4\nFormat                                   : UTF-8\nCodec ID                                 : S_TEXT/UTF8\nCodec ID/Info                            : UTF-8 Plain Text\nTitle                                    : forced\nLanguage                                 : Hungarian\nDefault                                  : Yes\nForced                                   : No\n &lt;a href=&quot;\nhttp://port.hu/halalfutam:_a_pokol_tuze_death_race:_inferno/pls/fi/films.film_page?i_where=2&amp;i_film_id=143183&amp;i_city_id=-1&amp;i_county_id=-1&amp;i_topic_id=2&quot; rel=&quot;nofollow&quot; target=&quot;_NEW&quot;&gt;\nhttp://port.hu/halalfutam:_a_pokol_tuze_death_race:_inferno/pls/fi/films.film_page?i_where=2&amp;i_film_id=143183&amp;i_city_id=-1&amp;i_county_id=-1&amp;i_topic_id=2&lt;/a&gt;","torrent":{"xt":"urn:btih:738deeabe3aea636883a9d24a83f695c9a95f32c","amp;dn":"Death.Race.3.2012.BRRip.x264.720p.Hun.Eng","amp;tr":["udp%3A%2F%2Ftracker.openbittorrent.com%3A80","udp%3A%2F%2Fopen.demonii.com%3A1337","udp%3A%2F%2Ftracker.coppersurfer.tk%3A6969","udp%3A%2F%2Fexodus.desync.com%3A6969"],"infoHash":"738deeabe3aea636883a9d24a83f695c9a95f32c","infoHashBuffer":{"type":"Buffer","data":[115,141,238,171,227,174,166,54,136,58,157,36,168,63,105,92,154,149,243,44]},"announce":[],"urlList":[]}}